<svg width="59" height="53" viewBox="0 0 59 53" fill="none" xmlns="http://www.w3.org/2000/svg">
<path d="M59 16.4441C59 16.2276 58.9707 16.002 58.9121 15.7674C58.8535 15.5329 58.7852 15.3163 58.707 15.1178C58.6289 14.9194 58.5215 14.7299 58.3848 14.5495C58.248 14.369 58.0918 14.1976 57.916 14.0352C57.7402 13.8728 57.5547 13.7284 57.3594 13.6021C57.1641 13.4758 56.9492 13.3676 56.7148 13.2773C56.4805 13.1871 56.2461 13.1149 56.0117 13.0608C55.7773 13.0067 55.5234 12.9796 55.25 12.9796H48.8633C50.6602 11.3556 51.5586 9.38882 51.5586 7.07917C51.5586 5.99652 51.3438 5.00409 50.9141 4.10189C50.4844 3.19968 49.7129 2.42378 48.5996 1.77419C47.4863 1.1246 46.1094 0.799805 44.4688 0.799805C43.8047 0.799805 43.1309 0.862959 42.4473 0.989268C41.7637 1.11558 41.1094 1.30504 40.4844 1.55766C39.8594 1.81028 39.2441 2.08996 38.6387 2.39671C38.0332 2.70346 37.4473 3.05532 36.8809 3.4523C36.3145 3.84927 35.7676 4.25526 35.2402 4.67028C34.7129 5.08529 34.2051 5.5364 33.7168 6.02359C32.0287 7.70793 30.7549 9.50636 29.5 11.4939C28.6797 10.339 27.4082 9.14523 26.4512 8.08062C25.4941 7.01602 24.3672 5.84315 23 4.67028C21.6328 3.49741 20.0938 2.60422 18.4531 1.88245C16.8125 1.16069 15.1914 0.799805 13.5898 0.799805C11.9492 0.799805 10.5723 1.1246 9.45898 1.77419C8.3457 2.42378 7.57422 3.19968 7.14453 4.10189C6.71484 5.00409 6.5 5.99652 6.5 7.07917C6.5 9.38882 7.41797 11.3737 9.25391 13.0337H3.75C2.69531 13.0337 1.80664 13.3676 1.08398 14.0352C0.361328 14.7028 0 15.5238 0 16.4982V26.8375H3.80859V49.4108C3.80859 50.3491 4.16992 51.161 4.89258 51.8467C5.61523 52.5324 6.50391 52.8752 7.55859 52.8752H51.5C52.5547 52.8752 53.4434 52.5324 54.166 51.8467C54.8887 51.161 55.25 50.3491 55.25 49.4108V26.8375H59V16.4441ZM44.4688 4.26428C46.6953 4.26428 47.8086 5.20258 47.8086 7.07917C47.8086 8.30617 47.3594 9.3798 46.4609 10.3001C45.5625 11.2203 44.4395 11.897 43.0918 12.33C41.7441 12.7631 40.3086 12.9796 38.7852 12.9796H32.457C33.1992 11.9691 33.9902 11.0038 34.8301 10.0835C35.6699 9.16327 36.6172 8.24302 37.6719 7.32277C38.7266 6.40252 39.8496 5.6627 41.041 5.10334C42.2324 4.54397 43.375 4.26428 44.4688 4.26428ZM13.5898 4.26428C15.6992 4.26428 17.8379 5.14845 20.0059 6.91677C22.1738 8.6851 25.0977 10.706 26.7773 12.9796H20.4492C18.0664 12.9796 15.9375 12.4383 14.0625 11.3556C12.1875 10.273 11.25 8.82945 11.25 7.02504C11.25 5.2928 11.2461 4.39059 13.2383 4.31842C13.3555 4.28233 13.4727 4.26428 13.5898 4.26428ZM57 24.8346H30.9961V14.8201H57V24.8346ZM2 14.8201H28L28.125 24.8346H2V14.8201ZM6 26.8375H53V50.8723H6V26.8375Z" fill="white"/>
</svg>
